PathFileType	4	(X/Y/Z)	/Users/visionmauri/4_3_2_f_1_Sports2D/4_3_2_f_1_Sports2D_px_person00.trc
DataRate	CameraRate	NumFrames	NumMarkers	Units	OrigDataRate	OrigDataStartFrame	OrigNumFrames
30.0	30.0	5	22	m	30.0	180	360
Frame#	Time	Hip			RHip			RKnee			RAnkle			RBigToe			RSmallToe			RHeel			LHip			LKnee			LAnkle			LBigToe			LSmallToe			LHeel			Neck			Head			Nose			RShoulder			RElbow			RWrist			LShoulder			LElbow			LWrist			
		X1	Y1	Z1	X2	Y2	Z2	X3	Y3	Z3	X4	Y4	Z4	X5	Y5	Z5	X6	Y6	Z6	X7	Y7	Z7	X8	Y8	Z8	X9	Y9	Z9	X10	Y10	Z10	X11	Y11	Z11	X12	Y12	Z12	X13	Y13	Z13	X14	Y14	Z14	X15	Y15	Z15	X16	Y16	Z16	X17	Y17	Z17	X18	Y18	Z18	X19	Y19	Z19	X20	Y20	Z20	X21	Y21	Z21	X22	Y22	Z22
180	6.016713091922006	566.783359225575	815.12370383976	0.0	518.5083758067481	806.3468723777348	0.0	508.9833834409592	954.295985815898	0.0	485.1644634935395	1188.1445133897985	0.0	507.62652983944076	1255.4681305834426	0.0	474.8533047306304	1144.3815450138202	0.0	495.4221733216368	1222.6625951531382	0.0	615.3562500863791	820.8538801175513	0.0	611.372362137306	1008.6659548411636	0.0	594.1794572027984	1201.9558434763628	0.0	648.2744058883826	1258.0761132328407	0.0	659.103984741442	1247.9489522227282	0.0	582.357330830466	1230.9081095748415	0.0	589.063112558439	563.3088473410052	0.0	595.2577357141921	426.828973991064	0.0	578.9928157697141	519.8610476989342	0.0	502.34151634849314	577.3670614565627	0.0	436.0021501387723	703.0580066148212	0.0	379.5919589489955	808.3574867921826	0.0	670.9045081470708	590.5671545213685	0.0	712.6760270501499	711.2922260834248	0.0	728.1548861632946	804.6148146656656	0.0
181	6.050139275766017	567.0500966749129	814.6054321490028	0.0	519.5083466508037	807.2973105952492	0.0	508.6610247457203	950.230922360504	0.0	483.25307461545935	1148.5823209578539	0.0	500.23928723166347	1211.4799284431658	0.0	468.8563927139776	1098.4253082605505	0.0	493.6573672290583	1166.7470989031294	0.0	615.7936374300854	821.5604292409364	0.0	611.6457160672348	1010.1251838887576	0.0	594.1284130520872	1202.0243911207804	0.0	647.3072692544586	1258.4179939935582	0.0	658.1155729445771	1248.1520295553953	0.0	582.3040325922295	1231.273059756276	0.0	588.4145813802455	563.7405844860788	0.0	592.7589671138834	427.1110048150476	0.0	579.6770626005339	517.8957583654224	0.0	501.17421048042814	578.2471486354158	0.0	434.85381572140165	701.2925794384103	0.0	379.51695644561727	806.9727571065471	0.0	670.720842003764	590.3042444610809	0.0	714.3258006565084	709.4993420251844	0.0	730.0425433711403	805.0522115966407	0.0
182	6.083565459610028	567.4570275321844	814.2942873011916	0.0	520.6390009416115	808.0787777403477	0.0	508.30107462608066	948.5356026255869	0.0	481.78018752978863	1108.3186209296318	0.0	491.5839077608712	1150.723418960101	0.0	462.5902949422747	1085.9928373905318	0.0	492.18261239217185	1112.3055879144822	0.0	616.4332722636607	821.6841451499017	0.0	611.913478884339	1011.1236540282335	0.0	594.287877157516	1202.434887552527	0.0	646.8947274048206	1258.7640196901043	0.0	657.3552583435658	1247.3894810741415	0.0	582.556098897131	1231.4340421135987	0.0	587.6775569522648	565.075283251657	0.0	590.3746155769774	428.01501765653	0.0	579.6114156707187	516.6856681435427	0.0	500.90053997245366	578.7985889227524	0.0	433.5399180245695	699.2399368949112	0.0	378.87050302746786	806.2258969760778	0.0	670.4695832264548	589.9950804401093	0.0	715.7215813707259	709.3261569039963	0.0	731.1903845189187	805.475054512398	0.0
183	6.116991643454039	567.6876832728549	814.8792167582537	0.0	521.4219590297434	808.3380937907206	0.0	507.68370379593915	949.3796612760617	0.0	478.8551405072536	1079.607648970525	0.0	484.51804337322443	1107.4415569978246	0.0	457.1979858246963	1089.0211051437918	0.0	491.5507809284535	1100.9746423646795	0.0	617.1550038212265	821.2351054983019	0.0	612.0742635756949	1011.3813653001027	0.0	594.6530591901785	1202.6847916379822	0.0	647.2885252647301	1258.7735023456542	0.0	657.2181626700074	1246.8431003256696	0.0	582.6610714435726	1231.2105664442784	0.0	587.0209611235606	566.379792604316	0.0	588.6510845073182	428.8453442921801	0.0	578.7964667029025	517.2269839853795	0.0	501.28485193030923	579.1071202410701	0.0	432.03277130157187	699.04599794122	0.0	378.4504002498325	806.4841003912671	0.0	670.1429594293579	590.4026942811885	0.0	716.7340475731231	711.0095365910219	0.0	731.8335030207959	805.6839539796113	0.0
184	6.1504178272980505	567.862120398923	815.7864977925285	0.0	521.8348722639425	808.4861968757469	0.0	507.19341904836045	950.164640988796	0.0	477.89078871491114	1049.2307832698864	0.0	483.17197943732504	1091.2758222884033	0.0	456.3341537074124	1087.5160427364335	0.0	492.1510176591196	1131.8267089734863	0.0	617.822975041963	820.76972522578	0.0	612.4522467433753	1011.3315856515654	0.0	595.0146261099818	1202.6324681486049	0.0	647.3704513009808	1258.134229470596	0.0	657.3408692585195	1246.9811799354309	0.0	582.5619522807254	1231.0590995118641	0.0	585.885906335823	567.0119375481022	0.0	586.5277442002152	429.497942568726	0.0	578.161114550393	518.5461496441307	0.0	500.51478289726305	580.0733958844734	0.0	430.08595378045106	701.0089867246015	0.0	378.461572415907	807.2989230600652	0.0	669.6369370139507	591.545002727515	0.0	716.6953184894907	712.8939258247261	0.0	732.5785547771331	805.8333281818597	0.0
